HIERARCHY
ROOT Root
{
	OFFSET 0.00 0.00 0.00
	CHANNELS 6 Xposition Yposition Zposition Xrotation Yrotation Zrotation
	JOINT L_Femur
	{
		OFFSET 2.78527 0.00000 0.00000
		CHANNELS 3 Xrotation Yrotation Zrotation
		JOINT L_Tibia
		{
			OFFSET 0.00000 -16.41095 0.00000
			CHANNELS 3 Xrotation Yrotation Zrotation
			JOINT L_Foot
			{
				OFFSET 0.00000 -14.21163 0.00000
				CHANNELS 3 Xrotation Yrotation Zrotation
				JOINT L_Toe
				{
					OFFSET 0.00000 -1.60827 6.00215
					CHANNELS 3 Xrotation Yrotation Zrotation
					End Site
					{
						OFFSET 0.00000 0.00000 2.95275
					}
				}
			}
		}
	}
	JOINT R_Femur
	{
		OFFSET -2.78527 0.00000 0.00000
		CHANNELS 3 Xrotation Yrotation Zrotation
		JOINT R_Tibia
		{
			OFFSET 0.00000 -16.41095 0.00000
			CHANNELS 3 Xrotation Yrotation Zrotation
			JOINT R_Foot
			{
				OFFSET 0.00000 -14.21163 0.00000
				CHANNELS 3 Xrotation Yrotation Zrotation
				JOINT R_Toe
				{
					OFFSET 0.00000 -1.60827 6.00215
					CHANNELS 3 Xrotation Yrotation Zrotation
					End Site
					{
						OFFSET 0.00000 0.00000 2.95275
					}
				}
			}
		}
	}
	JOINT LowerBack
	{
		OFFSET 0.00000 0.03937 0.00000
		CHANNELS 3 Xrotation Yrotation Zrotation
		JOINT Thorax
		{
			OFFSET 0.00000 7.01329 0.00000
			CHANNELS 3 Xrotation Yrotation Zrotation
			JOINT Neck
			{
				OFFSET 0.00000 7.25825 0.00000
				CHANNELS 3 Xrotation Yrotation Zrotation
				JOINT Head
				{
					OFFSET 0.00000 5.63334 0.00000
					CHANNELS 3 Xrotation Yrotation Zrotation
					End Site
					{
						OFFSET 0.00000 4.52755 0.00000
					}
				}
			}
			JOINT L_Collar
			{
				OFFSET 0.00000 7.25825 0.00000
				CHANNELS 3 Xrotation Yrotation Zrotation
				JOINT L_Humerus
				{
					OFFSET 6.91821 -0.00003 0.00000
					CHANNELS 3 Xrotation Yrotation Zrotation
					JOINT L_Elbow
					{
						OFFSET 10.34006 -0.00004 0.00000
						CHANNELS 3 Xrotation Yrotation Zrotation
						JOINT L_Wrist
						{
							OFFSET 7.25554 -0.00003 0.00000
							CHANNELS 3 Xrotation Yrotation Zrotation
							JOINT L_Thumb
							{
								OFFSET 0.00000 0.00000 0.00000
								CHANNELS 3 Xrotation Yrotation Zrotation
								End Site
								{
									OFFSET 0.00000 0.00000 3.93700
								}
							}
							JOINT L_Wrist_End
							{
								OFFSET 3.93700 -0.00001 0.00000
								CHANNELS 3 Xrotation Yrotation Zrotation
							}
						}
					}
				}
			}
			JOINT R_Collar
			{
				OFFSET 0.00000 7.25825 0.00000
				CHANNELS 3 Xrotation Yrotation Zrotation
				JOINT R_Humerus
				{
					OFFSET -6.91821 -0.00003 0.00000
					CHANNELS 3 Xrotation Yrotation Zrotation
					JOINT R_Elbow
					{
						OFFSET -10.34006 -0.00004 0.00000
						CHANNELS 3 Xrotation Yrotation Zrotation
						JOINT R_Wrist
						{
							OFFSET -7.25554 -0.00003 0.00000
							CHANNELS 3 Xrotation Yrotation Zrotation
							JOINT R_Thumb
							{
								OFFSET 0.00000 0.00000 0.00000
								CHANNELS 3 Xrotation Yrotation Zrotation
								End Site
								{
									OFFSET 0.00000 0.00000 3.93700
								}
							}
							JOINT R_Wrist_End
							{
								OFFSET -5.39369 -0.00002 0.00000
								CHANNELS 3 Xrotation Yrotation Zrotation
							}
						}
					}
				}
			}
		}
	}
}
MOTION
Frames: 8
Frame Time: 0.066664
 -40.4291 32.7943 -43.5812 7.0538 -60.0301 3.6245 1.5773 36.8642 -4.0371 6.4430 -0.0000 0.0000 -12.7829 -9.6516 6.3977 -9.0311 0.0000 0.0000 -27.1220 13.4940 1.2931 47.3143 -0.0000 0.0000 -21.2334 4.3057 -5.6922 -9.0026 0.0000 -0.0000 -4.1789 -2.7377 -10.2407 4.6191 -2.2447 11.9091 -1.8459 -45.6250 2.7230 -10.0168 61.1566 16.9565 -10.6745 10.8532 21.3202 -85.5557 -7.1068 -82.5462 -0.0000 -7.5231 -0.0000 -52.0612 -2.6566 -5.8930 -0.0000 0.0000 -0.0000 -0.0000 0.0000 -0.0000 9.6842 -0.1389 -14.9799 12.2311 18.8120 81.5103 -0.0000 11.7977 0.0000 -25.5168 8.2305 -3.1228 -0.0000 0.0000 -0.0000 -0.0000 0.0000 -0.0000
 -41.3770 32.7046 -42.9002 6.9809 -56.1517 3.1769 3.3001 33.9092 -3.6960 5.9407 0.0000 0.0000 -14.0882 -10.4043 5.6083 -8.9464 -0.0000 -0.0000 -27.6087 9.9830 2.0104 31.1980 -0.0000 0.0000 -18.8810 5.1281 -4.3553 -9.5000 0.0000 0.0000 -3.7339 -2.4025 -10.5334 4.7308 -1.7520 12.3718 -2.6212 -47.2429 1.9921 -12.6152 60.8533 19.7281 -8.9046 10.6497 18.7208 -80.6592 -4.2547 -86.6577 -0.0000 -6.7303 -0.0000 -51.7253 -2.7876 -5.8483 -0.0000 0.0000 -0.0000 -0.0000 0.0000 -0.0000 9.3207 0.9190 -13.6386 5.5079 21.9808 82.2823 -0.0000 10.9810 0.0000 -23.9365 8.1703 -3.9944 -0.0000 -0.0000 0.0000 -0.0000 -0.0000 0.0000
 -42.4357 32.5260 -42.0405 6.4582 -51.5002 2.6167 5.7670 31.3762 -3.3692 5.3921 -0.0000 0.0000 -15.7328 -12.4366 3.8887 -9.2525 -0.0000 0.0000 -25.7159 3.7674 1.8852 17.0758 -0.0000 0.0000 -16.3239 8.1732 -0.2552 -9.5821 0.0000 0.0000 -3.6063 -2.1579 -10.3818 5.0114 -1.4437 12.5236 -3.2213 -48.7335 0.8297 -14.9972 60.3984 21.6928 -5.1873 11.1226 13.5978 -72.6660 -3.7080 -92.2435 -0.0000 -5.0453 -0.0000 -52.8738 -3.2215 -5.8127 -0.0000 0.0000 -0.0000 -0.0000 0.0000 -0.0000 8.7623 2.5202 -11.8500 -6.3363 23.4662 83.8547 -0.0000 9.6594 0.0000 -22.3804 8.2468 -4.8109 -0.0000 -0.0000 0.0000 -0.0000 -0.0000 0.0000
 -43.5767 32.2678 -41.1587 9.1616 -46.6841 4.0093 2.7132 27.6320 -0.7973 10.5546 -0.0000 0.0000 -19.8696 -12.5734 3.8214 -8.4592 -0.0000 -0.0000 -26.9006 5.8930 2.8236 15.7313 -0.0000 0.0000 -14.6504 7.9104 -1.4271 -10.0237 -0.0000 -0.0000 -5.2665 -1.7602 -9.9349 4.7360 -1.3987 13.1961 -3.6761 -50.3470 0.1784 -14.9485 59.9924 21.0634 -1.9060 10.6208 7.1811 -59.1247 -8.6493 -94.4843 -0.0000 -3.3466 -0.0000 -51.1548 -3.0770 -5.1266 -0.0000 0.0000 -0.0000 -0.0000 0.0000 -0.0000 8.5141 4.2235 -10.0655 -23.3156 23.1197 84.7986 -0.0000 9.2045 0.0000 -22.6395 8.6829 -5.7590 -0.0000 -0.0000 0.0000 -0.0000 -0.0000 0.0000
 -45.1123 31.9713 -40.0679 7.6974 -44.5576 1.7706 0.1534 24.6155 3.6727 21.8769 -0.0000 0.0000 -23.9103 -11.5231 4.4962 -8.8225 -0.0000 0.0000 -25.8161 15.0007 5.8092 18.0314 -0.0000 0.0000 -9.0624 2.9197 1.8271 -9.8585 0.0000 0.0000 -5.2604 -0.9603 -8.9476 4.6623 -0.6747 13.4482 -2.3139 -50.9881 1.3783 -14.8789 59.8969 19.9646 1.9068 12.5353 1.2217 -42.1147 -18.6702 -91.8289 -0.0000 -0.1164 -0.0000 -49.7667 -2.3671 -5.8153 -0.0000 -0.0000 0.0000 -0.0000 -0.0000 0.0000 7.1112 5.6638 -10.2602 -43.3128 16.6564 88.3125 -0.0000 9.9986 0.0000 -22.2505 8.8637 -6.3318 -0.0000 -0.0000 0.0000 -0.0000 -0.0000 0.0000
 -46.5278 31.9915 -39.0011 7.0199 -43.1181 0.5411 -9.5859 21.1721 10.1950 44.8617 -0.0000 0.0000 -17.9285 -12.4007 3.5574 -15.3065 -0.0000 0.0000 -24.8653 14.6025 7.5045 22.5042 -0.0000 0.0000 -9.2762 2.6120 -1.4529 -9.5992 0.0000 -0.0000 -4.5781 -0.3423 -7.6578 4.5420 -0.1152 12.2366 -0.9974 -51.5686 2.9403 -18.7529 59.3016 22.9942 4.1003 15.8181 0.7794 -20.5942 -21.8797 -87.4100 0.0000 2.5551 -0.0000 -49.4223 -2.1147 -5.7415 -0.0000 -0.0000 0.0000 -0.0000 -0.0000 0.0000 3.7201 6.9547 -13.6575 -61.4102 4.6470 93.3417 -0.0000 11.4333 0.0000 -24.2970 10.1900 -5.7982 -0.0000 0.0000 -0.0000 -0.0000 0.0000 -0.0000
 -47.7882 32.3743 -37.7655 6.6985 -39.2652 0.1687 -18.5891 15.9561 14.2180 61.6322 -0.0000 0.0000 -12.8015 -14.5749 2.8542 -10.1019 -0.0000 0.0000 -19.2578 12.2142 6.0840 19.1727 -0.0000 0.0000 -10.2349 2.3161 -1.2446 -9.4937 -0.0000 -0.0000 -4.3950 0.3024 -7.0544 3.8997 0.4176 10.3091 -0.1871 -52.9512 4.1378 -16.6035 57.0843 22.4898 6.3560 17.1381 3.6607 -1.4871 -26.3281 -84.2866 0.0000 3.4680 -0.0000 -49.7390 -1.5944 -5.9575 -0.0000 -0.0000 0.0000 -0.0000 -0.0000 0.0000 0.7486 6.5372 -17.2110 -74.1256 0.8694 92.7954 -0.0001 13.8678 0.0000 -29.9247 11.5122 -3.9234 -0.0000 0.0000 -0.0000 -0.0000 0.0000 -0.0000
 -48.8087 32.9178 -36.3106 5.6032 -34.3228 0.9326 -23.5977 14.4546 13.8856 64.3141 -0.0000 0.0000 -17.1719 -12.4582 4.4187 -9.8187 0.0000 0.0000 -11.0463 9.4655 2.7591 12.3879 -0.0000 0.0000 -9.2103 1.8799 -2.6587 -9.7256 0.0000 0.0000 -4.5022 0.3229 -7.2816 4.1283 0.3316 7.6249 -0.7671 -53.8567 3.7502 -13.2373 55.3793 21.9094 8.0957 17.6358 6.9914 11.9247 -24.5362 -83.0149 0.0000 2.8157 -0.0000 -48.9183 -1.0122 -6.0422 -0.0000 -0.0000 0.0000 -0.0000 -0.0000 0.0000 -2.3146 5.4927 -19.6254 -81.4584 -0.8343 91.0805 -0.0001 15.5810 0.0000 -32.4480 12.1362 -2.9938 -0.0000 0.0000 -0.0000 -0.0000 0.0000 -0.0000
